<svg width="32" height="32" viewBox="0 0 32 32" xmlns="http://www.w3.org/2000/svg">
  <defs>
    <!-- Neon glow filters -->
    <filter id="neon-cyan" x="-50%" y="-50%" width="200%" height="200%">
      <feGaussianBlur stdDeviation="1" result="coloredBlur"/>
      <feMerge>
        <feMergeNode in="coloredBlur"/>
        <feMergeNode in="SourceGraphic"/>
      </feMerge>
    </filter>
    <filter id="neon-pink" x="-50%" y="-50%" width="200%" height="200%">
      <feGaussianBlur stdDeviation="1" result="coloredBlur"/>
      <feMerge>
        <feMergeNode in="coloredBlur"/>
        <feMergeNode in="SourceGraphic"/>
      </feMerge>
    </filter>
    <filter id="neon-purple" x="-50%" y="-50%" width="200%" height="200%">
      <feGaussianBlur stdDeviation="1" result="coloredBlur"/>
      <feMerge>
        <feMergeNode in="coloredBlur"/>
        <feMergeNode in="SourceGraphic"/>
      </feMerge>
    </filter>

    <!-- Gradient for background -->
    <radialGradient id="bgGradient" cx="50%" cy="50%">
      <stop offset="0%" style="stop-color:#1a1a2e;stop-opacity:1" />
      <stop offset="100%" style="stop-color:#0a0a0f;stop-opacity:1" />
    </radialGradient>
  </defs>

  <!-- Dark background -->
  <rect width="32" height="32" fill="url(#bgGradient)" rx="3"/>

  <!-- Robot head (geometric) -->
  <rect x="10" y="8" width="12" height="10" fill="none" stroke="#00FFFF" stroke-width="1.5" rx="2" filter="url(#neon-cyan)"/>

  <!-- Robot eyes -->
  <circle cx="13" cy="12" r="1.5" fill="#00FFFF" filter="url(#neon-cyan)"/>
  <circle cx="19" cy="12" r="1.5" fill="#00FFFF" filter="url(#neon-cyan)"/>

  <!-- Music note -->
  <path d="M7 20 Q7 18 9 18 L9 10 Q9 8 11 8 L20 6 Q22 6 22 8 L22 12 Q22 14 20 14 L20 16 Q20 18 18 18 Q16 18 16 20 Q16 22 18 22 Q20 22 20 20 L20 14"
        fill="none" stroke="#FF00FF" stroke-width="1.5" stroke-linecap="round" filter="url(#neon-pink)"/>

  <!-- Sound waves -->
  <path d="M24 12 Q26 10 26 12 Q26 14 24 12" fill="none" stroke="#8000FF" stroke-width="1" filter="url(#neon-purple)"/>
  <path d="M25 12 Q28 9 28 12 Q28 15 25 12" fill="none" stroke="#8000FF" stroke-width="1" filter="url(#neon-purple)"/>

  <!-- Small decorative elements -->
  <circle cx="6" cy="8" r="0.5" fill="#00FFFF" filter="url(#neon-cyan)"/>
  <circle cx="26" cy="26" r="0.5" fill="#FF00FF" filter="url(#neon-pink)"/>
  <circle cx="4" cy="28" r="0.5" fill="#8000FF" filter="url(#neon-purple)"/>
</svg>
